<svg width="32" height="33" viewBox="0 0 32 33" fill="none" xmlns="http://www.w3.org/2000/svg">
<path id="Icon" d="M30.6512 27.6194C30.6512 27.6194 28.6917 29.544 28.2115 30.1082C27.4292 30.943 26.5076 31.3372 25.2994 31.3372C25.1832 31.3372 25.0593 31.3372 24.9431 31.3294C22.6428 31.1826 20.5052 30.286 18.902 29.5208C14.5183 27.403 10.669 24.3963 7.47027 20.5858C4.82922 17.4091 3.06335 14.472 1.89385 11.3185C1.17356 9.39393 0.910226 7.89446 1.0264 6.48001C1.10385 5.57569 1.45238 4.82596 2.09522 4.18444L4.73627 1.54877C5.11578 1.19323 5.51852 1 5.91352 1C6.40146 1 6.79646 1.29371 7.0443 1.54105C7.05204 1.54877 7.05979 1.5565 7.06753 1.56423C7.53998 2.0048 7.98919 2.46082 8.46164 2.94776C8.70173 3.1951 8.94958 3.44243 9.19742 3.6975L11.3118 5.80757C12.1328 6.62687 12.1328 7.38433 11.3118 8.20363C11.0872 8.42778 10.8703 8.65192 10.6457 8.86834C9.99516 9.53305 10.5062 9.02302 9.83241 9.6259C9.81692 9.64136 9.80143 9.64909 9.79368 9.66455C9.12761 10.3293 9.25153 10.9785 9.39094 11.4191C9.39869 11.4423 9.40643 11.4655 9.41418 11.4886C9.96407 12.8181 10.7386 14.0702 11.9158 15.5619L11.9236 15.5697C14.0612 18.1976 16.315 20.2458 18.8012 21.8149C19.1187 22.0158 19.444 22.1781 19.7538 22.3327C20.0326 22.4719 20.296 22.6032 20.5206 22.7424C20.5515 22.7578 20.5825 22.781 20.6135 22.7965C20.8768 22.9279 21.1247 22.9897 21.3803 22.9897C22.0231 22.9897 22.4258 22.5878 22.5575 22.4564L24.0756 20.9414C24.339 20.6786 24.7572 20.3617 25.2451 20.3617C25.7253 20.3617 26.1203 20.6631 26.3604 20.9259C26.3682 20.9336 26.3682 20.9336 26.3759 20.9414L30.6434 25.2002C31.4412 25.9885 30.6512 27.6194 30.6512 27.6194Z" stroke="black" stroke-width="2" stroke-linecap="round" stroke-linejoin="round"/>
</svg>
