<svg width="23" height="16" viewBox="0 0 23 16" fill="none" xmlns="http://www.w3.org/2000/svg">
<g id="Group 27">
<rect id="Rectangle 512" width="23" height="16" fill="white"/>
<path id="Rectangle 511" fill-rule="evenodd" clip-rule="evenodd" d="M23 0H0V1.06667H23V0ZM23 2.1333H0V3.19997H23V2.1333ZM0 4.2667H23V5.33337H0V4.2667ZM23 6.4H0V7.46667H23V6.4ZM0 8.5333H23V9.59997H0V8.5333ZM23 10.6667H0V11.7334H23V10.6667ZM0 12.8H23V13.8667H0V12.8ZM23 14.9333H0V16H23V14.9333Z" fill="#D02F44"/>
<rect id="Rectangle 511_2" width="11" height="7" fill="#46467F"/>
<g id="Oval 43" filter="url(#filter0_d_54_100)">
<path fill-rule="evenodd" clip-rule="evenodd" d="M2.28571 0.928624C2.28571 1.28366 1.9979 1.57148 1.64286 1.57148C1.28782 1.57148 1 1.28366 1 0.928624C1 0.573584 1.28782 0.285767 1.64286 0.285767C1.9979 0.285767 2.28571 0.573584 2.28571 0.928624ZM4.8572 0.928624C4.8572 1.28366 4.56939 1.57148 4.21434 1.57148C3.8593 1.57148 3.57149 1.28366 3.57149 0.928624C3.57149 0.573584 3.8593 0.285767 4.21434 0.285767C4.56939 0.285767 4.8572 0.573584 4.8572 0.928624ZM6.78569 1.57148C7.14074 1.57148 7.42855 1.28366 7.42855 0.928624C7.42855 0.573584 7.14074 0.285767 6.78569 0.285767C6.43065 0.285767 6.14284 0.573584 6.14284 0.928624C6.14284 1.28366 6.43065 1.57148 6.78569 1.57148ZM10 0.928624C10 1.28366 9.71222 1.57148 9.35718 1.57148C9.00214 1.57148 8.71432 1.28366 8.71432 0.928624C8.71432 0.573584 9.00214 0.285767 9.35718 0.285767C9.71222 0.285767 10 0.573584 10 0.928624ZM2.92853 2.85716C3.28357 2.85716 3.57139 2.56934 3.57139 2.2143C3.57139 1.85926 3.28357 1.57144 2.92853 1.57144C2.57349 1.57144 2.28568 1.85926 2.28568 2.2143C2.28568 2.56934 2.57349 2.85716 2.92853 2.85716ZM6.14288 2.2143C6.14288 2.56934 5.85506 2.85716 5.50002 2.85716C5.14498 2.85716 4.85716 2.56934 4.85716 2.2143C4.85716 1.85926 5.14498 1.57144 5.50002 1.57144C5.85506 1.57144 6.14288 1.85926 6.14288 2.2143ZM8.07137 2.85716C8.42641 2.85716 8.71423 2.56934 8.71423 2.2143C8.71423 1.85926 8.42641 1.57144 8.07137 1.57144C7.71633 1.57144 7.42851 1.85926 7.42851 2.2143C7.42851 2.56934 7.71633 2.85716 8.07137 2.85716ZM10 3.50011C10 3.85515 9.71222 4.14297 9.35718 4.14297C9.00214 4.14297 8.71432 3.85515 8.71432 3.50011C8.71432 3.14507 9.00214 2.85725 9.35718 2.85725C9.71222 2.85725 10 3.14507 10 3.50011ZM6.78569 4.14297C7.14074 4.14297 7.42855 3.85515 7.42855 3.50011C7.42855 3.14507 7.14074 2.85725 6.78569 2.85725C6.43065 2.85725 6.14284 3.14507 6.14284 3.50011C6.14284 3.85515 6.43065 4.14297 6.78569 4.14297ZM4.8572 3.50011C4.8572 3.85515 4.56939 4.14297 4.21434 4.14297C3.8593 4.14297 3.57149 3.85515 3.57149 3.50011C3.57149 3.14507 3.8593 2.85725 4.21434 2.85725C4.56939 2.85725 4.8572 3.14507 4.8572 3.50011ZM1.64286 4.14297C1.9979 4.14297 2.28571 3.85515 2.28571 3.50011C2.28571 3.14507 1.9979 2.85725 1.64286 2.85725C1.28782 2.85725 1 3.14507 1 3.50011C1 3.85515 1.28782 4.14297 1.64286 4.14297ZM3.57139 4.78579C3.57139 5.14083 3.28357 5.42864 2.92853 5.42864C2.57349 5.42864 2.28568 5.14083 2.28568 4.78579C2.28568 4.43075 2.57349 4.14293 2.92853 4.14293C3.28357 4.14293 3.57139 4.43075 3.57139 4.78579ZM5.50002 5.42864C5.85506 5.42864 6.14288 5.14083 6.14288 4.78579C6.14288 4.43075 5.85506 4.14293 5.50002 4.14293C5.14498 4.14293 4.85716 4.43075 4.85716 4.78579C4.85716 5.14083 5.14498 5.42864 5.50002 5.42864ZM8.71423 4.78579C8.71423 5.14083 8.42641 5.42864 8.07137 5.42864C7.71633 5.42864 7.42851 5.14083 7.42851 4.78579C7.42851 4.43075 7.71633 4.14293 8.07137 4.14293C8.42641 4.14293 8.71423 4.43075 8.71423 4.78579ZM9.35718 6.71432C9.71222 6.71432 10 6.4265 10 6.07146C10 5.71642 9.71222 5.4286 9.35718 5.4286C9.00214 5.4286 8.71432 5.71642 8.71432 6.07146C8.71432 6.4265 9.00214 6.71432 9.35718 6.71432ZM7.42855 6.07146C7.42855 6.4265 7.14074 6.71432 6.78569 6.71432C6.43065 6.71432 6.14284 6.4265 6.14284 6.07146C6.14284 5.71642 6.43065 5.4286 6.78569 5.4286C7.14074 5.4286 7.42855 5.71642 7.42855 6.07146ZM4.21434 6.71432C4.56939 6.71432 4.8572 6.4265 4.8572 6.07146C4.8572 5.71642 4.56939 5.4286 4.21434 5.4286C3.8593 5.4286 3.57149 5.71642 3.57149 6.07146C3.57149 6.4265 3.8593 6.71432 4.21434 6.71432ZM2.28571 6.07146C2.28571 6.4265 1.9979 6.71432 1.64286 6.71432C1.28782 6.71432 1 6.4265 1 6.07146C1 5.71642 1.28782 5.4286 1.64286 5.4286C1.9979 5.4286 2.28571 5.71642 2.28571 6.07146Z" fill="url(#paint0_linear_54_100)"/>
</g>
</g>
<defs>
<filter id="filter0_d_54_100" x="1" y="0.285767" width="9" height="7.42859" filterUnits="userSpaceOnUse" color-interpolation-filters="sRGB">
<feFlood flood-opacity="0" result="BackgroundImageFix"/>
<feColorMatrix in="SourceAlpha" type="matrix" values="0 0 0 0 0 0 0 0 0 0 0 0 0 0 0 0 0 0 127 0" result="hardAlpha"/>
<feOffset dy="1"/>
<feColorMatrix type="matrix" values="0 0 0 0 0 0 0 0 0 0 0 0 0 0 0 0 0 0 0.06 0"/>
<feBlend mode="normal" in2="BackgroundImageFix" result="effect1_dropShadow_54_100"/>
<feBlend mode="normal" in="SourceGraphic" in2="effect1_dropShadow_54_100" result="shape"/>
</filter>
<linearGradient id="paint0_linear_54_100" x1="1" y1="0.285767" x2="1" y2="6.71432" gradientUnits="userSpaceOnUse">
<stop stop-color="white"/>
<stop offset="1" stop-color="#F0F0F0"/>
</linearGradient>
</defs>
</svg>
