<svg width="23" height="16" viewBox="0 0 23 16" fill="none" xmlns="http://www.w3.org/2000/svg">
<g id="Group 28">
<rect id="Mask Copy" width="23" height="16" fill="#F22A46"/>
<path id="Oval 9" fill-rule="evenodd" clip-rule="evenodd" d="M12 11C13.6569 11 15 9.65685 15 8C15 6.34315 13.6569 5 12 5C10.3431 5 9 6.34315 9 8C9 9.65685 10.3431 11 12 11Z" fill="#FFF04D"/>
<path id="Star 28" fill-rule="evenodd" clip-rule="evenodd" d="M10.6649 13.6991L12 11.7062L13.3351 13.6991L13.6733 11.3242L15.7409 12.5406L15.0152 10.2541L17.4058 10.4529L15.7599 8.70774L18 7.84957L15.7599 6.99139L17.4058 5.24626L15.0152 5.44502L15.7409 3.15858L13.6733 4.3749L13.3351 2L12 3.99297L10.6649 2L10.3267 4.3749L8.25906 3.15858L8.98479 5.44502L6.59419 5.24626L8.2401 6.99139L6 7.84957L8.2401 8.70774L6.59419 10.4529L8.98479 10.2541L8.25906 12.5406L10.3267 11.3242L10.6649 13.6991ZM15.8181 7.84953C15.8181 9.95826 14.1087 11.6677 12 11.6677C9.89124 11.6677 8.18178 9.95826 8.18178 7.84953C8.18178 5.74081 9.89124 4.03135 12 4.03135C14.1087 4.03135 15.8181 5.74081 15.8181 7.84953Z" fill="#FFF04D"/>
</g>
</svg>
